HIERARCHY
ROOT Hips
{
	OFFSET	0.000000	0.000000	0.000000
	CHANNELS 6 Xposition Yposition Zposition Zrotation Xrotation Yrotation
	JOINT LeftUpLeg
	{
		OFFSET	12.830505	-7.049846	-1.643436
		CHANNELS 3 Zrotation Xrotation Yrotation
		JOINT LeftLeg
		{
			OFFSET	0.620834	-39.957500	-1.919341
			CHANNELS 3 Zrotation Xrotation Yrotation
			JOINT LeftFoot
			{
				OFFSET	-0.413890	-44.704761	-3.870325
				CHANNELS 3 Zrotation Xrotation Yrotation
				JOINT LeftFootHeel
				{
					OFFSET	0.164738	-8.918193	-6.555130
					CHANNELS 3 Zrotation Xrotation Yrotation
					End Site
					{
						OFFSET	-0.604053	0.000000	21.044330
					}
				}
			}
		}
	}
	JOINT RightUpLeg
	{
		OFFSET	-12.830505	-7.049846	-1.643436
		CHANNELS 3 Zrotation Xrotation Yrotation
		JOINT RightLeg
		{
			OFFSET	-0.620834	-39.957500	-1.919341
			CHANNELS 3 Zrotation Xrotation Yrotation
			JOINT RightFoot
			{
				OFFSET	0.413890	-44.704761	-3.870325
				CHANNELS 3 Zrotation Xrotation Yrotation
				JOINT RightFootHeel
				{
					OFFSET	-0.164738	-8.918193	-6.555130
					CHANNELS 3 Zrotation Xrotation Yrotation
					End Site
					{
						OFFSET	0.604053	0.000000	21.044330
					}
				}
			}
		}
	}
	JOINT Spine
	{
		OFFSET	0.000000	12.498170	1.820647
		CHANNELS 3 Zrotation Xrotation Yrotation
		JOINT Spine1
		{
			OFFSET	0.000000	7.620000	0.000000
			CHANNELS 3 Zrotation Xrotation Yrotation
			JOINT LeftShoulder
			{
				OFFSET	9.167800	29.136339	-5.551221
				CHANNELS 3 Zrotation Xrotation Yrotation
				JOINT LeftArm
				{
					OFFSET	12.133453	-3.880866	1.461963
					CHANNELS 3 Zrotation Xrotation Yrotation
					JOINT LeftForeArm
					{
						OFFSET	2.507115	-31.664908	-1.069404
						CHANNELS 3 Zrotation Xrotation Yrotation
						JOINT LeftHand
						{
							OFFSET	4.116172	-24.512624	5.009439
							CHANNELS 3 Zrotation Xrotation Yrotation
							End Site
							{
								OFFSET	-0.213136	-10.931856	2.182134
							}
						}
					}
				}
			}
			JOINT RightShoulder
			{
				OFFSET	-9.167800	29.136339	-5.551221
				CHANNELS 3 Zrotation Xrotation Yrotation
				JOINT RightArm
				{
					OFFSET	-12.133453	-3.880866	1.461963
					CHANNELS 3 Zrotation Xrotation Yrotation
					JOINT RightForeArm
					{
						OFFSET	-2.507115	-31.664908	-1.069404
						CHANNELS 3 Zrotation Xrotation Yrotation
						JOINT RightHand
						{
							OFFSET	-4.116172	-24.512624	5.009439
							CHANNELS 3 Zrotation Xrotation Yrotation
							End Site
							{
								OFFSET	0.213136	-10.931856	2.182134
							}
						}
					}
				}
			}
			JOINT Neck
			{
				OFFSET	0.000000	32.926272	-3.635654
				CHANNELS 3 Zrotation Xrotation Yrotation
				JOINT Head
				{
					OFFSET	0.000000	12.481178	4.646143
					CHANNELS 3 Zrotation Xrotation Yrotation
					End Site
					{
						OFFSET	0.000000	17.715204	-2.222063
					}
				}
			}
		}
	}
}
MOTION
Frames:     15
Frame Time: 0.016667
0.000000	103.185580	0.000000	0.091876	0.293012	-0.019161	-0.203508	-0.508121	-0.030226	0.111617	0.215136	0.047918	0.000000	0.000000	-0.000004	0.	0.	0.	-0.058026	-0.380328	0.404344	-0.033136	0.087521	-0.385430	0.000001	0.000001	0.000002	0.	0.	0.	0.000000	0.000000	-0.000002	-0.088169	-0.384110	0.134102	-0.102393	0.137820	0.007118	0.042591	-0.149082	0.095440	0.714321	1.666266	1.872122	-0.125906	-0.563487	1.064893	0.054654	-0.024191	0.061438	0.098031	0.047496	-0.562280	-0.038167	-0.060795	-0.234153	-0.000136	-0.057809	0.159547	-0.446460	-0.097076	-0.138092	0.689860	-0.459382	0.464652	
0.000000	103.185580	0.000000	0.091876	0.293012	-0.019161	-0.202425	-0.504935	-0.030949	0.112593	0.214404	0.048753	-0.002064	-0.002451	-0.000103	0.	0.	0.	-0.058026	-0.380328	0.404344	-0.033136	0.087521	-0.385430	0.000001	0.000001	0.000002	0.	0.	0.	0.000000	0.000000	-0.000002	-0.091902	-0.399776	0.133312	-0.110579	0.159111	0.022726	0.061005	-0.117267	0.156733	0.752957	1.741862	1.927190	-0.147373	-0.595765	1.091119	0.054216	-0.011578	0.066864	0.101330	0.051282	-0.556525	-0.023468	-0.059099	-0.244361	-0.013285	-0.060359	0.155741	-0.471886	-0.086712	-0.124223	0.700612	-0.439484	0.471442	
0.000000	103.185580	0.000000	0.091876	0.293012	-0.019161	-0.202425	-0.504935	-0.030949	0.121730	0.225266	0.049226	-0.011210	-0.013305	-0.000613	0.	0.	0.	-0.058026	-0.380328	0.404344	-0.033136	0.087521	-0.385430	0.000001	0.000001	0.000002	0.	0.	0.	0.000000	0.000000	-0.000002	-0.095441	-0.414634	0.132563	-0.118821	0.179510	0.038123	0.071688	-0.118511	0.204031	0.796124	1.843853	2.014848	-0.166501	-0.624466	1.126927	0.055760	0.001804	0.069825	0.103638	0.054193	-0.512086	-0.009954	-0.059624	-0.301134	-0.024067	-0.061595	0.148464	-0.503256	-0.077482	-0.107660	0.724041	-0.424872	0.467945	
0.000000	103.185580	0.000000	0.091876	0.293012	-0.019161	-0.202425	-0.504935	-0.030949	0.132601	0.238193	0.049797	-0.022092	-0.026222	-0.001232	0.	0.	0.	-0.058026	-0.380328	0.404344	-0.033136	0.087521	-0.385430	0.000001	0.000001	0.000002	0.	0.	0.	0.000000	0.000000	-0.000002	-0.099171	-0.430290	0.131774	-0.127184	0.200861	0.053965	0.080899	-0.129109	0.238489	0.842055	1.959499	2.111995	-0.180294	-0.649719	1.203068	0.059526	0.017452	0.070572	0.112898	0.055814	-0.494560	-0.004952	-0.061098	-0.333839	-0.035120	-0.062190	0.145281	-0.513015	-0.064297	-0.100745	0.737518	-0.422476	0.461882	
-0.001885	103.185716	-0.014299	0.088082	0.280805	-0.018354	-0.198643	-0.492725	-0.031691	0.149364	0.258128	0.050655	-0.038873	-0.046142	-0.002170	0.	0.	0.	-0.047161	-0.384990	0.480183	-0.039958	0.104495	-0.461987	0.000001	0.000001	0.000002	0.	0.	0.	0.000000	0.000000	-0.000000	-0.101082	-0.441972	0.129804	-0.140554	0.233717	0.078922	0.102999	-0.119380	0.259348	0.902430	2.106947	2.249617	-0.212938	-0.703686	1.360467	0.065274	0.041331	0.071710	0.108594	0.059206	-0.445471	0.021766	-0.062099	-0.393031	-0.055479	-0.064884	0.143581	-0.514248	-0.035833	-0.094733	0.716886	-0.404999	0.487220	
-0.002299	103.185822	-0.016324	0.088082	0.280805	-0.018354	-0.198643	-0.492725	-0.031691	0.159154	0.269767	0.051153	-0.048674	-0.057772	-0.002724	0.	0.	0.	-0.045905	-0.387673	0.493996	-0.041166	0.107198	-0.475791	0.000001	0.000001	0.000002	0.	0.	0.	0.000000	0.000000	-0.000000	-0.101897	-0.445394	0.129633	-0.153517	0.243610	0.096226	0.123791	-0.092246	0.275278	0.934953	2.176364	2.306704	-0.228969	-0.716658	1.444792	0.066596	0.043002	0.076142	0.106833	0.061965	-0.435382	0.033222	-0.061344	-0.407221	-0.065664	-0.066725	0.143417	-0.514529	-0.004698	-0.086796	0.706398	-0.359969	0.508099	
-0.002299	103.185822	-0.016324	0.088082	0.280805	-0.018354	-0.198643	-0.492725	-0.031691	0.161352	0.272384	0.051256	-0.050875	-0.060387	-0.002841	0.	0.	0.	-0.045905	-0.387673	0.493996	-0.041166	0.107198	-0.475791	0.000001	0.000001	0.000002	0.	0.	0.	0.000000	0.000000	-0.000000	-0.101897	-0.445394	0.129633	-0.167840	0.250325	0.114025	0.137483	-0.093736	0.313764	0.971768	2.262410	2.326958	-0.237312	-0.709597	1.474488	0.066596	0.043002	0.076142	0.106833	0.061965	-0.435382	0.033222	-0.061344	-0.407221	-0.065664	-0.066725	0.143417	-0.514529	-0.004698	-0.086796	0.706398	-0.359969	0.508099	
-0.002775	103.185938	-0.018814	0.088082	0.280805	-0.018354	-0.198643	-0.492725	-0.031691	0.161352	0.272384	0.051256	-0.050875	-0.060387	-0.002841	0.	0.	0.	-0.044518	-0.391009	0.508683	-0.042496	0.110557	-0.490464	0.000001	0.000001	0.000002	0.	0.	0.	0.000000	0.000000	-0.000000	-0.101897	-0.445394	0.129633	-0.175317	0.257131	0.138932	0.140567	-0.107604	0.369444	1.006447	2.344067	2.326231	-0.249266	-0.717957	1.463603	0.071519	0.028172	0.112640	0.099994	0.078336	-0.449258	0.035198	-0.062942	-0.429871	-0.065664	-0.066725	0.143417	-0.488616	0.016326	-0.020366	0.698613	-0.269921	0.468886	
-0.003835	103.186200	-0.024119	0.088082	0.280805	-0.018354	-0.198643	-0.492725	-0.031691	0.161352	0.272384	0.051256	-0.050875	-0.060387	-0.002841	0.	0.	0.	-0.041425	-0.398088	0.541554	-0.045458	0.117690	-0.523307	0.000001	0.000001	0.000002	0.	0.	0.	0.000000	0.000000	-0.000000	-0.101897	-0.445394	0.129633	-0.177723	0.260500	0.152545	0.140915	-0.114375	0.392819	1.021122	2.379258	2.333087	-0.255518	-0.724467	1.456624	0.071990	0.027367	0.122979	0.099537	0.079128	-0.459598	0.035198	-0.062942	-0.429871	-0.065664	-0.066725	0.143417	-0.474691	0.009033	0.008426	0.702033	-0.266958	0.458522	
-0.006251	103.186878	-0.034954	0.089054	0.283923	-0.018560	-0.199612	-0.495844	-0.031502	0.161352	0.272384	0.051256	-0.050875	-0.060387	-0.002841	0.	0.	0.	-0.035710	-0.416224	0.612639	-0.051837	0.132834	-0.594135	0.000001	0.000001	0.000002	0.	0.	0.	-0.000000	-0.000000	-0.000001	-0.102364	-0.448818	0.133195	-0.182640	0.267421	0.176146	0.141998	-0.126654	0.425316	1.047720	2.442364	2.364658	-0.294326	-0.715451	1.467718	0.071110	0.032914	0.143028	0.098659	0.074885	-0.468310	0.034858	-0.054539	-0.445970	-0.063979	-0.076163	0.144809	-0.450158	-0.003728	0.056837	0.704683	-0.261512	0.436629	
-0.008765	103.187954	-0.041663	0.094072	0.300004	-0.019622	-0.204253	-0.511324	-0.027315	0.161005	0.271769	0.048054	-0.050875	-0.060387	-0.002841	0.	0.	0.	-0.035282	-0.444173	0.671333	-0.056996	0.144815	-0.651749	0.000001	0.000001	0.000002	0.	0.	0.	0.000000	0.000000	0.000001	-0.105037	-0.466288	0.149748	-0.188080	0.275089	0.187054	0.142938	-0.136869	0.437381	1.069724	2.498735	2.420037	-0.359682	-0.713808	1.522605	0.080277	0.051061	0.153796	0.085371	0.059553	-0.474010	0.036088	-0.052756	-0.467021	-0.063398	-0.079394	0.145286	-0.428846	-0.014561	0.090192	0.699143	-0.254009	0.407054	
-0.011144	103.189301	-0.048018	0.101233	0.321323	-0.014499	-0.209806	-0.529755	-0.017498	0.159429	0.268855	0.033021	-0.050875	-0.060387	-0.002841	0.	0.	0.	-0.037713	-0.475903	0.716413	-0.061503	0.155335	-0.701957	0.000001	0.000001	0.000002	0.	0.	0.	-0.000000	-0.000000	0.000000	-0.109404	-0.489274	0.163382	-0.192159	0.282528	0.193924	0.145890	-0.134308	0.421379	1.083226	2.535594	2.492101	-0.412657	-0.748808	1.584818	0.082780	0.058837	0.143748	0.078835	0.054436	-0.468673	0.037300	-0.053757	-0.481119	-0.063398	-0.079394	0.145286	-0.420284	-0.018679	0.094920	0.701853	-0.252420	0.399074	
-0.013611	103.190987	-0.056061	0.110197	0.346522	-0.001234	-0.217077	-0.551755	-0.014386	0.157690	0.265658	0.016519	-0.050875	-0.060387	-0.002841	0.	0.	0.	-0.041752	-0.511949	0.756053	-0.066251	0.166313	-0.754881	0.000001	0.000001	0.000002	0.	0.	0.	0.000000	-0.000000	-0.000003	-0.115313	-0.516329	0.171086	-0.194610	0.289618	0.197789	0.151282	-0.109893	0.428935	1.086786	2.532283	2.521112	-0.427206	-0.775137	1.632719	0.086549	0.067760	0.147886	0.071309	0.047873	-0.486632	0.035095	-0.037497	-0.486655	-0.060433	-0.096142	0.143579	-0.419534	-0.012696	0.084214	0.717513	-0.258516	0.425526	
-0.017728	103.193787	-0.071202	0.124721	0.386358	0.024722	-0.228755	-0.586066	-0.012193	0.154707	0.260160	-0.011829	-0.050875	-0.060387	-0.002841	0.	0.	0.	-0.047749	-0.570670	0.821730	-0.074489	0.185453	-0.846528	0.000001	0.000001	0.000002	0.	0.	0.	0.000000	0.000000	0.000000	-0.125417	-0.558867	0.175915	-0.190548	0.297445	0.198745	0.143874	-0.108819	0.404045	1.093198	2.548750	2.552857	-0.440412	-0.796437	1.674546	0.092100	0.078936	0.155896	0.059948	0.040363	-0.511849	0.028475	0.008908	-0.515610	-0.050056	-0.124004	0.141978	-0.404705	0.014651	0.106321	0.712723	-0.287776	0.389299	
-0.017728	103.193787	-0.071202	0.124721	0.386358	0.024722	-0.226257	-0.581720	0.010575	0.152312	0.255753	-0.034563	-0.050875	-0.060387	-0.002841	0.	0.	0.	-0.047749	-0.570670	0.821730	-0.074489	0.185453	-0.846528	0.000001	0.000001	0.000002	0.	0.	0.	0.000000	0.000000	0.000000	-0.122654	-0.560496	0.194167	-0.177902	0.298609	0.192863	0.128541	-0.108264	0.391629	1.102783	2.575519	2.561601	-0.452836	-0.822277	1.694912	0.089367	0.080545	0.137670	0.059948	0.040363	-0.511849	0.028475	0.008908	-0.515610	-0.050056	-0.124004	0.141978	-0.407458	0.016418	0.088110	0.712723	-0.287776	0.389299	
